<svg xmlns="http://www.w3.org/2000/svg" version="1.0" width="512.000000pt" height="512.000000pt" viewBox="0 0 512.000000 512.000000" preserveAspectRatio="xMidYMid meet">
<metadata>
Created by potrace 1.16, written by Peter Selinger 2001-2019
</metadata>
<g xmlns="http://www.w3.org/2000/svg" transform="translate(0.000000,512.000000) scale(0.100000,-0.100000)" fill="#fff" stroke="none">
<path d="M0 4070 l0 -380 150 0 150 0 0 225 0 225 230 0 231 0 -3 153 -3 152 -377 3 -378 2 0 -380z"/>
<path d="M4367 4443 c-4 -3 -7 -73 -7 -155 l0 -148 230 0 230 0 0 -225 0 -225 150 0 150 0 0 380 0 380 -373 0 c-206 0 -377 -3 -380 -7z"/>
<path d="M640 2560 l0 -1310 155 0 155 0 0 1310 0 1310 -155 0 -155 0 0 -1310z"/>
<path d="M1230 2860 l0 -1010 155 0 155 0 0 1010 0 1010 -155 0 -155 0 0 -1010z"/>
<path d="M1820 2860 l0 -1010 155 0 155 0 0 1010 0 1010 -155 0 -155 0 0 -1010z"/>
<path d="M2405 3858 c-3 -7 -4 -596 -3 -1308 l3 -1295 153 -3 152 -3 0 1311 0 1310 -150 0 c-111 0 -152 -3 -155 -12z"/>
<path d="M2990 2560 l0 -1310 155 0 155 0 0 1310 0 1310 -155 0 -155 0 0 -1310z"/>
<path d="M3580 2860 l0 -1010 155 0 155 0 0 1010 0 1010 -155 0 -155 0 0 -1010z"/>
<path d="M4170 2560 l0 -1310 155 0 155 0 0 1310 0 1310 -155 0 -155 0 0 -1310z"/>
<path d="M1230 1405 l0 -155 155 0 155 0 0 155 0 155 -155 0 -155 0 0 -155z"/>
<path d="M1820 1405 l0 -155 155 0 155 0 0 155 0 155 -155 0 -155 0 0 -155z"/>
<path d="M3580 1405 l0 -155 155 0 155 0 0 155 0 155 -155 0 -155 0 0 -155z"/>
<path d="M0 1050 l0 -380 378 2 377 3 3 153 3 152 -231 0 -230 0 0 225 0 225 -150 0 -150 0 0 -380z"/>
<path d="M4820 1205 l0 -225 -230 0 -231 0 3 -152 3 -153 378 -3 377 -2 0 380 0 380 -150 0 -150 0 0 -225z"/>
</g>
</svg>