<svg width="18" height="19" viewBox="0 0 18 19" fill="none" xmlns="http://www.w3.org/2000/svg">
<path d="M6 5.54167V2.375M12 5.54167V2.375M2.25 8.70833H15.75M3.75 16.625H14.25C14.6478 16.625 15.0294 16.4582 15.3107 16.1613C15.592 15.8643 15.75 15.4616 15.75 15.0417V5.54167C15.75 5.12174 15.592 4.71901 15.3107 4.42208C15.0294 4.12515 14.6478 3.95833 14.25 3.95833H3.75C3.35218 3.95833 2.97064 4.12515 2.68934 4.42208C2.40804 4.71901 2.25 5.12174 2.25 5.54167V15.0417C2.25 15.4616 2.40804 15.8643 2.68934 16.1613C2.97064 16.4582 3.35218 16.625 3.75 16.625Z" stroke="#7B7B7B" stroke-width="2" stroke-linecap="round" stroke-linejoin="round"/>
<path d="M5.28627 11.0324C5.28627 11.4111 4.95725 11.7583 4.50056 11.7583C4.04387 11.7583 3.71484 11.4111 3.71484 11.0324C3.71484 10.6538 4.04387 10.3066 4.50056 10.3066C4.95725 10.3066 5.28627 10.6538 5.28627 11.0324Z" stroke="#7B7B7B"/>
</svg>
