<svg width="20" height="23" viewBox="0 0 20 23" fill="none" xmlns="http://www.w3.org/2000/svg">
<path d="M16.1579 2H5.73684C4.16989 2 2.89474 3.49556 2.89474 5.33333V6.44444H1.94737C1.69611 6.44444 1.45514 6.56151 1.27748 6.76988C1.09981 6.97826 1 7.26087 1 7.55556C1 7.85024 1.09981 8.13286 1.27748 8.34123C1.45514 8.5496 1.69611 8.66667 1.94737 8.66667H2.89474V10.8889H1.94737C1.69611 10.8889 1.45514 11.006 1.27748 11.2143C1.09981 11.4227 1 11.7053 1 12C1 12.2947 1.09981 12.5773 1.27748 12.7857C1.45514 12.994 1.69611 13.1111 1.94737 13.1111H2.89474V15.3333H1.94737C1.69611 15.3333 1.45514 15.4504 1.27748 15.6588C1.09981 15.8671 1 16.1498 1 16.4444C1 16.7391 1.09981 17.0217 1.27748 17.2301C1.45514 17.4385 1.69611 17.5556 1.94737 17.5556H2.89474V18.6667C2.89474 20.5044 4.16989 22 5.73684 22H16.1579C17.7248 22 19 20.5044 19 18.6667V5.33333C19 3.49556 17.7248 2 16.1579 2ZM4.78947 5.33333C4.78947 4.72111 5.21484 4.22222 5.73684 4.22222V6.44444H4.78947V5.33333ZM4.78947 8.66667H5.73684V10.8889H4.78947V8.66667ZM4.78947 13.1111H5.73684V15.3333H4.78947V13.1111ZM4.78947 18.6667V17.5556H5.73684V19.7778C5.21484 19.7778 4.78947 19.2789 4.78947 18.6667ZM17.1053 18.6667C17.1053 19.2789 16.6799 19.7778 16.1579 19.7778H6.68421V4.22222H16.1579C16.6799 4.22222 17.1053 4.72111 17.1053 5.33333V18.6667Z" fill="#026CDF"/>
<path d="M11.502 12.0043C12.4556 12.0043 13.233 11.0886 13.233 9.97408C13.233 8.86825 12.4596 8 11.502 8C10.5524 8 9.77104 8.88553 9.77104 9.98272C9.77504 11.0929 10.5484 12.0043 11.502 12.0043ZM11.502 11.3521C10.917 11.3521 10.4161 10.7473 10.4161 9.98272C10.4161 9.2311 10.909 8.65227 11.502 8.65227C12.099 8.65227 12.5879 9.22246 12.5879 9.97408C12.5879 10.7387 12.091 11.3521 11.502 11.3521ZM8.98168 16H14.0183C14.6835 16 15 15.784 15 15.3089C15 14.1771 13.6737 12.54 11.502 12.54C9.32627 12.54 8 14.1771 8 15.3089C8 15.784 8.31654 16 8.98168 16ZM8.79336 15.3477C8.68918 15.3477 8.64511 15.3175 8.64511 15.2268C8.64511 14.5184 9.66285 13.1922 11.502 13.1922C13.3371 13.1922 14.3549 14.5184 14.3549 15.2268C14.3549 15.3175 14.3148 15.3477 14.2106 15.3477H8.79336Z" fill="#026CDF"/>
</svg>
