<svg width="20" height="16" viewBox="0 0 20 16" fill="none" xmlns="http://www.w3.org/2000/svg">
<path d="M19.2857 0.119141H0.714286C0.319196 0.119141 0 0.427901 0 0.810073V14.6287C0 15.0109 0.319196 15.3196 0.714286 15.3196H19.2857C19.6808 15.3196 20 15.0109 20 14.6287V0.810073C20 0.427901 19.6808 0.119141 19.2857 0.119141ZM18.3929 2.51149V13.7651H1.60714V2.51149L0.991071 2.04727L1.8683 0.956896L2.82366 1.6759H17.1786L18.1339 0.956896L19.0112 2.04727L18.3929 2.51149ZM17.1786 1.67374L10 7.07165L2.82143 1.67374L1.86607 0.954737L0.988839 2.04511L1.60491 2.50933L9.22991 8.24407C9.44919 8.40886 9.71897 8.49831 9.99665 8.49831C10.2743 8.49831 10.5441 8.40886 10.7634 8.24407L18.3929 2.51149L19.0089 2.04727L18.1317 0.956896L17.1786 1.67374Z" fill="#545454"/>
</svg>
