<svg width="15" height="15" viewBox="0 0 15 15" fill="none" xmlns="http://www.w3.org/2000/svg">
<path d="M1.83902 10.1623C1.58231 9.9359 1.41034 9.63739 1.36095 9.33247C1.31155 9.02755 1.38877 8.74119 1.57563 8.53638L7.6816 1.8439C7.86846 1.6391 8.14964 1.53263 8.46328 1.54792C8.77693 1.5632 9.09736 1.699 9.35407 1.92542L10.322 2.77915C10.4076 2.85462 10.4649 2.95413 10.4813 3.05577C10.4978 3.15741 10.4721 3.25286 10.4098 3.32113C10.2229 3.52593 10.1457 3.81229 10.1951 4.11722C10.2445 4.42214 10.4165 4.72065 10.6732 4.94707C10.9299 5.17349 11.2503 5.30929 11.564 5.32457C11.8776 5.33986 12.1588 5.23339 12.3456 5.02859C12.4079 4.96032 12.5017 4.92483 12.6062 4.92993C12.7107 4.93502 12.8176 4.98029 12.9031 5.05576L13.8711 5.90949C14.1278 6.13592 14.2997 6.43442 14.3491 6.73935C14.3985 7.04427 14.3213 7.33063 14.1344 7.53543L8.02847 14.2279C7.84161 14.4327 7.56043 14.5392 7.24679 14.5239C6.93314 14.5086 6.61272 14.3728 6.35601 14.1464L5.38808 13.2927C5.30251 13.2172 5.24519 13.1177 5.22872 13.0161C5.21226 12.9144 5.238 12.819 5.30028 12.7507C5.48714 12.5459 5.56436 12.2595 5.51497 11.9546C5.46557 11.6497 5.2936 11.3512 5.03689 11.1247C4.78018 10.8983 4.45976 10.7625 4.14611 10.7472C3.83247 10.732 3.55129 10.8384 3.36443 11.0432C3.30215 11.1115 3.20842 11.147 3.10387 11.1419C2.99932 11.1368 2.89252 11.0915 2.80695 11.0161L1.83902 10.1623ZM2.22091 9.10554C2.15863 9.17381 2.13289 9.26926 2.14935 9.3709C2.16582 9.47254 2.22314 9.57204 2.30871 9.64752L2.98626 10.2451C3.32575 10.0195 3.76225 9.93244 4.22178 9.99869C4.68132 10.0649 5.13564 10.2804 5.50776 10.6087C5.87988 10.9369 6.14692 11.3576 6.26363 11.7996C6.38034 12.2417 6.33954 12.6777 6.14815 13.034L6.8257 13.6316C6.91127 13.7071 7.01807 13.7523 7.12262 13.7574C7.22717 13.7625 7.3209 13.727 7.38318 13.6588L13.4892 6.96628C13.5514 6.89801 13.5772 6.80256 13.5607 6.70092C13.5443 6.59928 13.4869 6.49978 13.4014 6.4243L12.7238 5.82669C12.3843 6.05231 11.9478 6.13938 11.4883 6.07313C11.0288 6.00688 10.5744 5.79139 10.2023 5.46317C9.83019 5.13495 9.56315 4.71419 9.44644 4.27218C9.32973 3.83017 9.37053 3.39409 9.56192 3.03784L8.88437 2.44023C8.7988 2.36475 8.692 2.31949 8.58745 2.31439C8.4829 2.30929 8.38917 2.34478 8.32689 2.41305L2.22091 9.10554Z" fill="#7B7B7B"/>
<path d="M1.04741 9.25437C0.769617 9.03513 0.569647 8.74162 0.491487 8.43842C0.413327 8.13521 0.463381 7.84714 0.630635 7.63757L6.09614 0.789489C6.2634 0.579925 6.53415 0.466035 6.84885 0.472874C7.16354 0.479713 7.4964 0.606721 7.77419 0.825957L8.82159 1.65259C8.91419 1.72567 8.98084 1.8235 9.0069 1.92457C9.03295 2.02564 9.01627 2.12167 8.96052 2.19152C8.79326 2.40108 8.74321 2.68916 8.82137 2.99236C8.89953 3.29557 9.0995 3.58908 9.37729 3.80831C9.65508 4.02755 9.98793 4.15456 10.3026 4.1614C10.6173 4.16824 10.8881 4.05435 11.0553 3.84478C11.1111 3.77493 11.2013 3.73696 11.3062 3.73924C11.4111 3.74152 11.5221 3.78386 11.6147 3.85694L12.6621 4.68357C12.9399 4.90281 13.1398 5.19631 13.218 5.49952C13.2962 5.80273 13.2461 6.0908 13.0789 6.30036L7.61335 13.1484C7.44609 13.358 7.17534 13.4719 6.86064 13.4651C6.54595 13.4582 6.2131 13.3312 5.93531 13.112L4.8879 12.2853C4.7953 12.2123 4.72865 12.1144 4.70259 12.0134C4.67654 11.9123 4.69322 11.8163 4.74898 11.7464C4.91623 11.5369 4.96628 11.2488 4.88812 10.9456C4.80996 10.6424 4.60999 10.3489 4.3322 10.1296C4.05441 9.91038 3.72156 9.78338 3.40687 9.77654C3.09217 9.7697 2.82142 9.88359 2.65416 10.0932C2.59841 10.163 2.50816 10.201 2.40326 10.1987C2.29836 10.1964 2.18741 10.1541 2.09481 10.081L1.04741 9.25437ZM1.32891 8.18866C1.27316 8.25851 1.25647 8.35454 1.28252 8.45561C1.30858 8.55668 1.37523 8.65451 1.46783 8.72759L2.20102 9.30623C2.51875 9.07177 2.94646 8.97309 3.41167 9.0269C3.87689 9.08072 4.351 9.28373 4.75368 9.60152C5.15636 9.91932 5.46284 10.3324 5.62118 10.7707C5.77953 11.209 5.78001 11.6456 5.62254 12.0066L6.35573 12.5852C6.44833 12.6583 6.55928 12.7006 6.66418 12.7029C6.76907 12.7052 6.85933 12.6672 6.91508 12.5974L12.3806 5.74928C12.4363 5.67942 12.453 5.5834 12.427 5.48233C12.4009 5.38126 12.3343 5.28342 12.2417 5.21034L11.5085 4.6317C11.1907 4.86617 10.763 4.96485 10.2978 4.91103C9.8326 4.85722 9.35849 4.65421 8.95581 4.33641C8.55313 4.01861 8.24666 3.60556 8.08831 3.16725C7.92996 2.72894 7.92948 2.29232 8.08695 1.93137L7.35376 1.35273C7.26116 1.27965 7.15021 1.23732 7.04532 1.23504C6.94042 1.23276 6.85017 1.27072 6.79441 1.34058L1.32891 8.18866Z" fill="#7B7B7B"/>
</svg>
