<svg width="13" height="4" viewBox="0 0 13 4" fill="none" xmlns="http://www.w3.org/2000/svg">
<path d="M1.28338 3.192C0.931375 3.192 0.627375 3.064 0.371375 2.808C0.131375 2.552 0.011375 2.24 0.011375 1.872C0.011375 1.52 0.131375 1.216 0.371375 0.96C0.627375 0.704 0.931375 0.576 1.28338 0.576C1.65138 0.576 1.96338 0.704 2.21938 0.96C2.47538 1.216 2.60338 1.528 2.60338 1.896C2.60338 2.248 2.47538 2.552 2.21938 2.808C1.96338 3.064 1.65138 3.192 1.28338 3.192ZM6.15838 3.192C5.80638 3.192 5.50238 3.064 5.24638 2.808C5.00638 2.552 4.88638 2.24 4.88638 1.872C4.88638 1.52 5.00638 1.216 5.24638 0.96C5.50238 0.704 5.80638 0.576 6.15838 0.576C6.52638 0.576 6.83838 0.704 7.09438 0.96C7.35038 1.216 7.47838 1.528 7.47838 1.896C7.47838 2.248 7.35038 2.552 7.09438 2.808C6.83838 3.064 6.52638 3.192 6.15838 3.192ZM11.0334 3.192C10.6814 3.192 10.3774 3.064 10.1214 2.808C9.88138 2.552 9.76138 2.24 9.76138 1.872C9.76138 1.52 9.88138 1.216 10.1214 0.96C10.3774 0.704 10.6814 0.576 11.0334 0.576C11.4014 0.576 11.7134 0.704 11.9694 0.96C12.2254 1.216 12.3534 1.528 12.3534 1.896C12.3534 2.248 12.2254 2.552 11.9694 2.808C11.7134 3.064 11.4014 3.192 11.0334 3.192Z" fill="#545454"/>
</svg>
