<svg width="23" height="25" viewBox="0 0 23 25" fill="none" xmlns="http://www.w3.org/2000/svg">
<path d="M19.9236 6.04179L17.1712 3.11593C17.0861 3.02516 16.985 2.95317 16.8736 2.90411C16.7623 2.85505 16.6429 2.82989 16.5223 2.83008H5.509C5.38846 2.82989 5.26907 2.85505 5.15771 2.90411C5.04635 2.95317 4.94522 3.02516 4.86014 3.11593L2.10772 6.04179C2.02197 6.1322 1.95396 6.23982 1.90764 6.35839C1.86132 6.47696 1.83762 6.60413 1.83789 6.73252V19.4154C1.83789 20.4915 2.66114 21.3667 3.67345 21.3667H18.3579C19.3702 21.3667 20.1934 20.4915 20.1934 19.4154V6.73252C20.1937 6.60413 20.17 6.47696 20.1237 6.35839C20.0774 6.23982 20.0094 6.1322 19.9236 6.04179ZM5.88896 4.7813H16.1424L17.0602 5.75691H4.97119L5.88896 4.7813ZM3.67345 19.4154V7.70813H18.3579L18.3597 19.4154H3.67345Z" fill="#545454"/>
<path d="M12.8502 9.66016H9.17911V12.587H6.42578L11.0147 17.465L15.6036 12.587H12.8502V9.66016Z" fill="#545454"/>
</svg>
