<svg width="23" height="25" viewBox="0 0 23 25" fill="none" xmlns="http://www.w3.org/2000/svg">
<path d="M10.1332 5.75643H13.8043C13.8043 5.23894 13.611 4.74264 13.2667 4.37671C12.9225 4.01079 12.4556 3.80521 11.9688 3.80521C11.482 3.80521 11.0151 4.01079 10.6709 4.37671C10.3266 4.74264 10.1332 5.23894 10.1332 5.75643ZM8.75657 5.75643C8.75657 5.30801 8.83966 4.86399 9.00109 4.44971C9.16252 4.03542 9.39913 3.659 9.69741 3.34192C9.99569 3.02484 10.3498 2.77332 10.7395 2.60172C11.1293 2.43012 11.547 2.3418 11.9688 2.3418C12.3906 2.3418 12.8083 2.43012 13.1981 2.60172C13.5878 2.77332 13.9419 3.02484 14.2402 3.34192C14.5385 3.659 14.7751 4.03542 14.9365 4.44971C15.0979 4.86399 15.181 5.30801 15.181 5.75643H20.4582C20.6408 5.75643 20.8159 5.83352 20.945 5.97074C21.074 6.10796 21.1466 6.29408 21.1466 6.48814C21.1466 6.6822 21.074 6.86831 20.945 7.00553C20.8159 7.14276 20.6408 7.21985 20.4582 7.21985H19.2468L18.173 19.0355C18.0906 19.9408 17.6939 20.7811 17.0603 21.3924C16.4267 22.0037 15.6016 22.3421 14.746 22.3418H9.1916C8.3361 22.3419 7.51124 22.0033 6.87783 21.392C6.24443 20.7808 5.84789 19.9406 5.76553 19.0355L4.69082 7.21985H3.47935C3.29679 7.21985 3.12171 7.14276 2.99262 7.00553C2.86354 6.86831 2.79102 6.6822 2.79102 6.48814C2.79102 6.29408 2.86354 6.10796 2.99262 5.97074C3.12171 5.83352 3.29679 5.75643 3.47935 5.75643H8.75657ZM10.5921 10.3906C10.5921 10.1965 10.5196 10.0104 10.3905 9.87318C10.2614 9.73596 10.0864 9.65887 9.90379 9.65887C9.72124 9.65887 9.54616 9.73596 9.41707 9.87318C9.28798 10.0104 9.21546 10.1965 9.21546 10.3906V17.7077C9.21546 17.9017 9.28798 18.0878 9.41707 18.225C9.54616 18.3623 9.72124 18.4394 9.90379 18.4394C10.0864 18.4394 10.2614 18.3623 10.3905 18.225C10.5196 18.0878 10.5921 17.9017 10.5921 17.7077V10.3906ZM14.0338 9.65887C14.2163 9.65887 14.3914 9.73596 14.5205 9.87318C14.6496 10.0104 14.7221 10.1965 14.7221 10.3906V17.7077C14.7221 17.9017 14.6496 18.0878 14.5205 18.225C14.3914 18.3623 14.2163 18.4394 14.0338 18.4394C13.8512 18.4394 13.6762 18.3623 13.5471 18.225C13.418 18.0878 13.3455 17.9017 13.3455 17.7077V10.3906C13.3455 10.1965 13.418 10.0104 13.5471 9.87318C13.6762 9.73596 13.8512 9.65887 14.0338 9.65887ZM7.13578 18.895C7.18528 19.438 7.42326 19.942 7.80334 20.3087C8.18341 20.6754 8.67833 20.8785 9.1916 20.8784H14.746C15.2593 20.8785 15.7542 20.6754 16.1342 20.3087C16.5143 19.942 16.7523 19.438 16.8018 18.895L17.8646 7.21985H6.07299L7.13578 18.895Z" fill="#414141"/>
</svg>
