<svg width="17" height="20" viewBox="0 0 17 20" fill="none" xmlns="http://www.w3.org/2000/svg">
<path d="M12.5077 13.8806L9.50224 17.4164C9.3708 17.5712 9.21472 17.694 9.04293 17.7778C8.87113 17.8616 8.68698 17.9047 8.50101 17.9047C8.31504 17.9047 8.13089 17.8616 7.95909 17.7778C7.78729 17.694 7.63122 17.5712 7.49978 17.4164L4.49361 13.8806C3.70114 12.9482 3.16147 11.7603 2.94285 10.4671C2.72422 9.17394 2.83646 7.83352 3.26536 6.61536C3.69427 5.39721 4.42058 4.35604 5.35245 3.62351C6.28433 2.89098 7.37991 2.5 8.50065 2.5C9.6214 2.5 10.717 2.89098 11.6489 3.62351C12.5807 4.35604 13.307 5.39721 13.7359 6.61536C14.1648 7.83352 14.2771 9.17394 14.0585 10.4671C13.8398 11.7603 13.3002 12.9482 12.5077 13.8806V13.8806Z" stroke="#666666" stroke-width="2" stroke-linecap="round" stroke-linejoin="round"/>
<path d="M10.625 9.16602C10.625 9.82906 10.4011 10.4649 10.0026 10.9338C9.60409 11.4026 9.06358 11.666 8.5 11.666C7.93641 11.666 7.39591 11.4026 6.9974 10.9338C6.59888 10.4649 6.375 9.82906 6.375 9.16602C6.375 8.50297 6.59888 7.86709 6.9974 7.39825C7.39591 6.92941 7.93641 6.66602 8.5 6.66602C9.06358 6.66602 9.60409 6.92941 10.0026 7.39825C10.4011 7.86709 10.625 8.50297 10.625 9.16602V9.16602Z" stroke="#666666" stroke-width="2" stroke-linecap="round" stroke-linejoin="round"/>
</svg>
