<svg width="64" height="54" viewBox="0 0 64 54" fill="none" xmlns="http://www.w3.org/2000/svg">
<circle cx="33" cy="27" r="27" fill="#F2F2F2"/>
<path d="M42.7738 16.1107C42.5402 15.9096 42.2586 15.778 41.9588 15.7296C41.6589 15.6813 41.3521 15.7181 41.0708 15.8362L21.6607 23.9733C21.3471 24.1072 21.08 24.3369 20.8951 24.6321C20.7101 24.9272 20.616 25.2738 20.6251 25.6259C20.6343 25.9779 20.7463 26.3187 20.9464 26.603C21.1465 26.8874 21.4251 27.1018 21.7452 27.2178L25.9334 28.7276L28.203 36.5193C28.2073 36.5351 28.2214 36.5452 28.2279 36.5598C28.2513 36.622 28.2854 36.6792 28.3286 36.7286C28.3943 36.8048 28.4791 36.8605 28.5735 36.8895C28.5843 36.894 28.5919 36.9041 28.6027 36.9063H28.6092L28.6125 36.9075C28.6963 36.9262 28.7834 36.9215 28.8649 36.894C28.8736 36.8917 28.8822 36.8917 28.892 36.8883C28.9702 36.8598 29.0411 36.8128 29.0989 36.7511C29.1054 36.7432 29.1162 36.7421 29.1227 36.7353L32.3868 32.9936L37.1502 36.8242C37.4395 37.0593 37.7959 37.1865 38.1631 37.1865C38.9583 37.1865 39.6441 36.6082 39.8076 35.8016L43.3415 17.7813C43.4014 17.4754 43.3803 17.1583 43.2803 16.8639C43.1803 16.5695 43.0053 16.3088 42.7738 16.1096V16.1107ZM29.3871 30.207L28.6211 34.0736L27.0232 28.5858L34.9478 24.2996L29.5344 29.9223C29.4594 30.0001 29.4082 30.0991 29.3871 30.207ZM38.746 35.5755C38.7256 35.6775 38.6804 35.7723 38.6145 35.851C38.5487 35.9296 38.4645 35.9893 38.3701 36.0243C38.2779 36.0612 38.1781 36.0725 38.0805 36.0571C37.9828 36.0417 37.8907 36.0002 37.8132 35.9366L32.6533 31.7865C32.5454 31.7 32.4102 31.6589 32.2744 31.6714C32.1387 31.6839 32.0125 31.7491 31.921 31.854L29.6492 34.4538L30.4141 30.5985L38.2021 22.5097C38.2933 22.4147 38.3488 22.2889 38.3586 22.1552C38.3684 22.0214 38.3318 21.8884 38.2554 21.7802C38.1791 21.6719 38.068 21.5956 37.9422 21.565C37.8164 21.5343 37.6842 21.5514 37.5695 21.6131L26.3429 27.6858L22.0995 26.1536C21.987 26.115 21.8888 26.041 21.8187 25.9418C21.7487 25.8426 21.7101 25.7231 21.7084 25.6001C21.703 25.476 21.7349 25.3532 21.7998 25.2488C21.8646 25.1443 21.9591 25.0635 22.0702 25.0173L41.4771 16.8802C41.5765 16.8363 41.6858 16.8221 41.7926 16.8392C41.8994 16.8563 41.9994 16.904 42.0816 16.977C42.1632 17.0456 42.2249 17.1364 42.2597 17.2393C42.2945 17.3422 42.3011 17.4531 42.2787 17.5597L38.746 35.5766V35.5755Z" fill="#7B7B7B"/>
</svg>
